HIERARCHY
ROOT Hips
{
	OFFSET 0.00 0.00 0.00
	CHANNELS 6 Xposition Yposition Zposition Xrotation Yrotation Zrotation
	JOINT Spine
	{
		OFFSET 0.00000 1.15266 1.72900
		CHANNELS 3 Xrotation Yrotation Zrotation
		JOINT Spine1
		{
			OFFSET 0.00000 0.40032 2.27031
			CHANNELS 3 Xrotation Yrotation Zrotation
			JOINT Spine2
			{
				OFFSET 0.00000 0.20092 2.29656
				CHANNELS 3 Xrotation Yrotation Zrotation
				JOINT Spine3
				{
					OFFSET 0.00000 0.00000 2.30533
					CHANNELS 3 Xrotation Yrotation Zrotation
					JOINT Neck
					{
						OFFSET 0.00000 -0.86449 6.05149
						CHANNELS 3 Xrotation Yrotation Zrotation
						JOINT Head
						{
							OFFSET 0.00000 -0.55043 3.12167
							CHANNELS 3 Xrotation Yrotation Zrotation
							End Site
							{
								OFFSET 0.00000 0.00000 3.73175
							}
						}
					}
					JOINT RightShoulder
					{
						OFFSET -0.78828 -1.31380 4.25672
						CHANNELS 3 Xrotation Yrotation Zrotation
						JOINT RightArm
						{
							OFFSET -3.91513 0.00000 0.00000
							CHANNELS 3 Xrotation Yrotation Zrotation
							JOINT RightForeArm
							{
								OFFSET -6.91491 0.00000 0.00000
								CHANNELS 3 Xrotation Yrotation Zrotation
								JOINT RightHand
								{
									OFFSET -6.09622 0.00000 0.00000
									CHANNELS 3 Xrotation Yrotation Zrotation
									JOINT RightHandEnd
									{
										OFFSET -1.74995 0.00000 0.00000
										CHANNELS 3 Xrotation Yrotation Zrotation
										End Site
										{
											OFFSET -1.74995 0.00000 0.00000
										}
									}
									JOINT RightHandThumb1
									{
										OFFSET -0.69998 -1.16663 -0.46665
										CHANNELS 3 Yrotation Xrotation Zrotation
										End Site
										{
											OFFSET -1.69032 -0.45292 0.00000
										}
									}
								}
							}
						}
					}
					JOINT LeftShoulder
					{
						OFFSET 0.78828 -1.31380 4.25672
						CHANNELS 3 Xrotation Yrotation Zrotation
						JOINT LeftArm
						{
							OFFSET 3.91513 0.00000 0.00000
							CHANNELS 3 Xrotation Yrotation Zrotation
							JOINT LeftForeArm
							{
								OFFSET 6.91491 0.00000 0.00000
								CHANNELS 3 Xrotation Yrotation Zrotation
								JOINT LeftHand
								{
									OFFSET 6.09622 0.00000 0.00000
									CHANNELS 3 Xrotation Yrotation Zrotation
									JOINT LeftHandEnd
									{
										OFFSET 1.74995 0.00000 0.00000
										CHANNELS 3 Xrotation Yrotation Zrotation
										End Site
										{
											OFFSET 1.74995 0.00000 0.00000
										}
									}
									JOINT LeftHandThumb1
									{
										OFFSET 0.69998 -1.16663 -0.46665
										CHANNELS 3 Yrotation Xrotation Zrotation
										End Site
										{
											OFFSET 1.69032 -0.45292 0.00000
										}
									}
								}
							}
						}
					}
				}
			}
		}
	}
	JOINT RightUpLeg
	{
		OFFSET -2.33857 0.00000 -0.68318
		CHANNELS 3 Xrotation Yrotation Zrotation
		JOINT RightLeg
		{
			OFFSET 0.00000 0.00000 -10.74496
			CHANNELS 3 Xrotation Yrotation Zrotation
			JOINT RightFoot
			{
				OFFSET 0.00000 0.00000 -10.93085
				CHANNELS 3 Xrotation Yrotation Zrotation
				JOINT RightToeBase
				{
					OFFSET 0.00000 -4.08727 -1.48765
					CHANNELS 3 Xrotation Yrotation Zrotation
					End Site
					{
						OFFSET 0.00000 -1.89187 -0.00000
					}
				}
			}
		}
	}
	JOINT LeftUpLeg
	{
		OFFSET 2.33857 0.00000 -0.68318
		CHANNELS 3 Xrotation Yrotation Zrotation
		JOINT LeftLeg
		{
			OFFSET 0.00000 0.00000 -10.74496
			CHANNELS 3 Xrotation Yrotation Zrotation
			JOINT LeftFoot
			{
				OFFSET 0.00000 0.00000 -10.93085
				CHANNELS 3 Xrotation Yrotation Zrotation
				JOINT LeftToeBase
				{
					OFFSET 0.00000 -4.08727 -1.48765
					CHANNELS 3 Xrotation Yrotation Zrotation
					End Site
					{
						OFFSET 0.00000 -1.89187 -0.00000
					}
				}
			}
		}
	}
}
MOTION
Frames: 10
Frame Time: 0.008342
 1.8184 -1.8426 25.0579 0.5806 -0.1766 171.9979 -2.8189 -1.5083 0.6612 -0.5574 -11.9823 -1.9661 9.7583 18.5575 7.1296 -2.7653 0.3914 -0.0859 -12.1180 -8.5195 -0.1901 10.7326 3.2398 -4.5674 -11.4497 -21.0374 3.2093 -3.5977 -2.1759 39.5982 -0.0000 0.0001 96.0233 45.3539 54.4137 19.6250 0.0000 -0.0000 -0.0000 0.0000 -0.0000 -0.0000 -4.3099 28.4642 3.0534 49.6276 20.4938 -34.1022 -0.0000 -0.0000 -17.2937 -0.6330 -15.6309 -4.1815 0.0000 -0.0000 -0.0000 -0.0000 0.0000 0.0000 3.1846 -0.0479 -10.6614 -0.1427 0.0000 -0.0000 -3.1072 -2.0582 14.3325 -2.0909 0.0000 -0.0000 2.9899 -0.8489 0.2054 -1.4429 0.0000 -0.0000 -3.9157 -0.7033 12.1120 -0.4941 0.0000 -0.0000
 1.8200 -1.8448 25.0578 0.5317 -0.1644 171.9731 -2.8541 -1.5031 0.6673 -0.5738 -11.9667 -1.9576 9.7906 18.5755 7.1171 -2.7745 0.4059 -0.0850 -12.1528 -8.5717 -0.1791 10.7359 3.2733 -4.5632 -11.6286 -20.9651 3.1392 -4.7101 -4.5298 39.5796 -0.0000 0.0001 95.2026 44.9943 54.3461 17.7236 -0.0000 0.0000 -0.0000 0.0000 -0.0000 -0.0000 -4.3125 28.4575 3.0449 49.6655 20.4677 -34.1344 -0.0000 -0.0000 -17.2662 -0.6858 -15.6061 -4.1747 -0.0000 0.0000 -0.0000 -0.0000 0.0000 0.0000 3.1098 -0.0468 -10.6671 -0.1172 0.0000 -0.0000 -3.1110 -2.0032 14.3496 -2.1225 0.0000 -0.0000 2.9297 -0.8477 0.2092 -1.4325 0.0000 -0.0000 -3.9191 -0.6867 12.1327 -0.4922 0.0000 -0.0000
 1.8221 -1.8451 25.0577 0.5225 -0.1586 171.9477 -2.8482 -1.4946 0.6717 -0.5744 -11.9620 -1.9572 9.7818 18.5967 7.1394 -2.7776 0.4243 -0.0863 -12.1661 -8.6113 -0.1795 10.7443 3.2912 -4.5622 -11.7980 -20.8451 3.0878 -5.8095 -7.0295 39.4794 -0.0000 0.0001 94.4551 44.0552 54.2279 16.0434 -0.0000 -0.0000 0.0000 0.0000 -0.0000 -0.0000 -4.2901 28.4545 3.0224 49.7163 20.4210 -34.1739 -0.0000 -0.0000 -17.2302 -0.7307 -15.5520 -4.1657 0.0000 -0.0000 0.0000 -0.0000 0.0000 0.0000 3.0917 -0.0496 -10.6797 -0.1133 0.0000 -0.0000 -3.1087 -1.9376 14.3712 -2.1653 0.0000 -0.0000 2.9227 -0.8476 0.2164 -1.4344 0.0000 -0.0000 -3.9202 -0.6759 12.1504 -0.4933 0.0000 -0.0000
 1.8240 -1.8464 25.0575 0.4812 -0.1463 171.9198 -2.8665 -1.4881 0.6779 -0.5755 -11.9900 -1.9560 9.7593 18.6611 7.1676 -2.7784 0.4437 -0.0768 -12.1799 -8.6493 -0.1971 10.7593 3.2965 -4.5691 -12.0047 -20.6638 3.0217 -6.8611 -9.7108 39.2955 -0.0000 0.0001 93.8099 42.4762 54.0739 14.6688 0.0000 -0.0000 -0.0000 -0.0000 -0.0000 0.0000 -4.2724 28.4521 2.9871 49.7786 20.3660 -34.2045 -0.0000 -0.0000 -17.1926 -0.7657 -15.4668 -4.1503 0.0000 0.0000 0.0000 -0.0000 0.0000 -0.0000 3.0329 -0.0506 -10.6957 -0.1024 0.0000 -0.0000 -3.1082 -1.8590 14.3958 -2.2164 0.0000 -0.0000 2.8727 -0.8456 0.2224 -1.4222 0.0000 -0.0000 -3.9223 -0.6732 12.1713 -0.4966 0.0000 -0.0000
 1.8264 -1.8462 25.0572 0.4677 -0.1386 171.8945 -2.8533 -1.4876 0.6854 -0.5715 -11.9847 -1.9497 9.7171 18.6781 7.2146 -2.7761 0.4776 -0.0737 -12.1789 -8.6713 -0.2205 10.7750 3.2868 -4.5814 -12.2058 -20.4380 2.9825 -7.9154 -12.5178 38.9944 -0.0000 0.0001 93.3080 40.2385 53.8914 13.5970 0.0000 -0.0000 -0.0000 0.0000 0.0000 0.0000 -4.2421 28.4703 2.9529 49.8353 20.2889 -34.2235 -0.0000 -0.0000 -17.1567 -0.8027 -15.3570 -4.1319 0.0000 -0.0000 0.0000 -0.0000 -0.0000 0.0000 3.0157 -0.0548 -10.7168 -0.1085 0.0000 -0.0000 -3.1036 -1.7756 14.4213 -2.2739 0.0000 -0.0000 2.8599 -0.8447 0.2260 -1.4178 0.0000 -0.0000 -3.9231 -0.6760 12.1918 -0.5021 0.0000 -0.0000
 1.8287 -1.8470 25.0570 0.4199 -0.1247 171.8716 -2.8678 -1.4819 0.6944 -0.5568 -12.0301 -1.9527 9.6460 18.7607 7.2686 -2.7725 0.4960 -0.0526 -12.1774 -8.6816 -0.2609 10.7916 3.2632 -4.6007 -12.4534 -20.1443 2.9329 -8.9371 -15.4907 38.5677 -0.0000 0.0001 92.9767 37.3711 53.6881 12.8318 0.0000 0.0000 -0.0000 0.0000 0.0000 0.0000 -4.2070 28.5050 2.9028 49.8744 20.2083 -34.2120 -0.0000 -0.0000 -17.1323 -0.8411 -15.2282 -4.1064 0.0000 -0.0000 -0.0000 0.0000 0.0000 0.0000 2.9556 -0.0574 -10.7390 -0.1055 0.0000 -0.0000 -3.1017 -1.6886 14.4450 -2.3325 0.0000 -0.0000 2.8004 -0.8428 0.2287 -1.3978 0.0000 -0.0000 -3.9261 -0.6829 12.2105 -0.5090 0.0000 -0.0000
 1.8316 -1.8463 25.0567 0.3960 -0.1158 171.8533 -2.8546 -1.4836 0.7008 -0.5443 -12.0395 -1.9468 9.5717 18.7950 7.3404 -2.7691 0.5255 -0.0442 -12.1680 -8.6733 -0.3015 10.8064 3.2274 -4.6273 -12.7132 -19.8043 2.9012 -9.9745 -18.5654 38.0059 -0.0000 0.0001 92.8345 33.9393 53.4799 12.2935 0.0000 0.0000 0.0000 -0.0000 0.0000 0.0000 -4.1760 28.5550 2.8585 49.8965 20.1357 -34.1802 -0.0000 -0.0000 -17.1178 -0.8842 -15.0906 -4.0737 0.0000 -0.0000 0.0000 -0.0000 0.0000 0.0000 2.9322 -0.0633 -10.7662 -0.1163 0.0000 -0.0000 -3.0963 -1.6087 14.4706 -2.3882 0.0000 -0.0000 2.7722 -0.8435 0.2316 -1.3826 0.0000 -0.0000 -3.9307 -0.6899 12.2247 -0.5167 0.0000 -0.0000
 1.8346 -1.8456 25.0565 0.3632 -0.1061 171.8399 -2.8438 -1.4783 0.7060 -0.5248 -12.0647 -1.9416 9.4742 18.8359 7.4199 -2.7605 0.5512 -0.0263 -12.1595 -8.6454 -0.3527 10.8185 3.1821 -4.6573 -12.9954 -19.4319 2.8531 -11.0303 -21.7115 37.3366 -0.0000 0.0001 92.8786 30.0558 53.2911 11.8964 0.0000 -0.0000 0.0000 -0.0000 0.0000 -0.0000 -4.1406 28.6271 2.8103 49.8890 20.0659 -34.1196 -0.0000 -0.0000 -17.1166 -0.9390 -14.9508 -4.0367 0.0000 -0.0000 0.0000 -0.0000 0.0000 -0.0000 2.9007 -0.0698 -10.7919 -0.1263 0.0000 -0.0000 -3.0917 -1.5399 14.4926 -2.4354 0.0000 -0.0000 2.7320 -0.8454 0.2308 -1.3627 0.0000 -0.0000 -3.9374 -0.6954 12.2380 -0.5241 0.0000 -0.0000
 1.8381 -1.8442 25.0564 0.3382 -0.0989 171.8313 -2.8253 -1.4723 0.7119 -0.5063 -12.0754 -1.9334 9.3765 18.8523 7.5039 -2.7512 0.5742 -0.0110 -12.1478 -8.5964 -0.4036 10.8252 3.1310 -4.6903 -13.2925 -19.0386 2.8117 -12.1309 -24.8806 36.5378 -0.0000 0.0001 93.1205 25.8849 53.1317 11.5123 -0.0000 0.0000 0.0000 -0.0000 0.0000 -0.0000 -4.1070 28.7147 2.7606 49.8492 20.0205 -34.0318 -0.0000 -0.0000 -17.1292 -1.0027 -14.8210 -3.9938 0.0000 0.0000 -0.0000 0.0000 -0.0000 -0.0000 2.8825 -0.0779 -10.8171 -0.1393 0.0000 -0.0000 -3.0871 -1.4892 14.5136 -2.4693 0.0000 -0.0000 2.7016 -0.8500 0.2282 -1.3428 0.0000 -0.0000 -3.9473 -0.6960 12.2486 -0.5304 0.0000 -0.0000
 1.8419 -1.8423 25.0564 0.3142 -0.0936 171.8269 -2.8109 -1.4614 0.7180 -0.4832 -12.0867 -1.9276 9.2786 18.8639 7.5847 -2.7425 0.5840 0.0082 -12.1342 -8.5249 -0.4508 10.8254 3.0771 -4.7235 -13.6210 -18.6278 2.7718 -13.2732 -28.0442 35.6083 -0.0000 0.0001 93.5483 21.6251 53.0171 11.0406 -0.0000 0.0000 -0.0000 0.0000 -0.0000 -0.0000 -4.0787 28.8202 2.7141 49.7754 19.9997 -33.9134 -0.0000 -0.0000 -17.1611 -1.0746 -14.7045 -3.9438 -0.0000 0.0000 0.0000 0.0000 -0.0000 0.0000 2.8672 -0.0868 -10.8398 -0.1497 0.0000 -0.0000 -3.0842 -1.4609 14.5333 -2.4862 0.0000 -0.0000 2.6717 -0.8572 0.2244 -1.3199 0.0000 -0.0000 -3.9613 -0.6905 12.2568 -0.5346 0.0000 -0.0000
